<svg xmlns="http://www.w3.org/2000/svg" version="1.1" xmlns:xlink="http://www.w3.org/1999/xlink" xmlns:svgjs="http://svgjs.dev/svgjs" viewBox="0 0 800 800"><defs><linearGradient x1="50%" y1="0%" x2="50%" y2="100%" id="ffflurry-grad" gradientTransform="rotate(270)"><stop stop-color="hsl(238, 82%, 13%)" stop-opacity="1" offset="0%"></stop><stop stop-color="hsl(185, 53%, 55%)" stop-opacity="1" offset="45%"></stop><stop stop-color="hsl(0, 73%, 55%)" stop-opacity="1" offset="100%"></stop></linearGradient></defs><rect width="100%" height="100%" fill="hsl(238, 82%, 13%)"></rect><g fill="url(#ffflurry-grad)"><rect width="659" height="3" x="-145.5" y="585.5" rx="1.5" transform="rotate(45, 184, 587)" opacity="0.69"></rect><rect width="426" height="3" x="-96" y="152.5" rx="1.5" transform="rotate(45, 117, 154)" opacity="0.55"></rect><rect width="118" height="3" x="115" y="472.5" rx="1.5" transform="rotate(45, 174, 474)" opacity="0.51"></rect><rect width="190" height="3" x="431" y="415.5" rx="1.5" transform="rotate(45, 526, 417)" opacity="0.23"></rect><rect width="173" height="3" x="394.5" y="133.5" rx="1.5" transform="rotate(45, 481, 135)" opacity="0.17"></rect><rect width="354" height="3" x="-42" y="662.5" rx="1.5" transform="rotate(45, 135, 664)" opacity="0.34"></rect><rect width="490" height="3" x="359" y="478.5" rx="1.5" transform="rotate(45, 604, 480)" opacity="0.57"></rect><rect width="75" height="3" x="168.5" y="319.5" rx="1.5" transform="rotate(45, 206, 321)" opacity="0.69"></rect><rect width="370" height="3" x="106" y="294.5" rx="1.5" transform="rotate(45, 291, 296)" opacity="0.79"></rect><rect width="164" height="3" x="-19" y="548.5" rx="1.5" transform="rotate(45, 63, 550)" opacity="0.98"></rect><rect width="330" height="3" x="-124" y="609.5" rx="1.5" transform="rotate(45, 41, 611)" opacity="1.00"></rect><rect width="471" height="3" x="517.5" y="291.5" rx="1.5" transform="rotate(45, 753, 293)" opacity="0.82"></rect><rect width="430" height="3" x="189" y="68.5" rx="1.5" transform="rotate(45, 404, 70)" opacity="0.14"></rect><rect width="335" height="3" x="534.5" y="180.5" rx="1.5" transform="rotate(45, 702, 182)" opacity="0.09"></rect><rect width="204" height="3" x="457" y="202.5" rx="1.5" transform="rotate(45, 559, 204)" opacity="0.38"></rect><rect width="178" height="3" x="172" y="519.5" rx="1.5" transform="rotate(45, 261, 521)" opacity="0.08"></rect><rect width="532" height="3" x="368" y="370.5" rx="1.5" transform="rotate(45, 634, 372)" opacity="0.76"></rect><rect width="257" height="3" x="119.5" y="50.5" rx="1.5" transform="rotate(45, 248, 52)" opacity="0.40"></rect><rect width="111" height="3" x="711.5" y="410.5" rx="1.5" transform="rotate(45, 767, 412)" opacity="0.46"></rect><rect width="147" height="3" x="190.5" y="160.5" rx="1.5" transform="rotate(45, 264, 162)" opacity="0.28"></rect><rect width="677" height="3" x="407.5" y="642.5" rx="1.5" transform="rotate(45, 746, 644)" opacity="0.90"></rect><rect width="290" height="3" x="-126" y="59.5" rx="1.5" transform="rotate(45, 19, 61)" opacity="0.91"></rect><rect width="730" height="3" x="185" y="310.5" rx="1.5" transform="rotate(45, 550, 312)" opacity="0.12"></rect><rect width="414" height="3" x="8" y="728.5" rx="1.5" transform="rotate(45, 215, 730)" opacity="0.10"></rect><rect width="323" height="3" x="-81.5" y="700.5" rx="1.5" transform="rotate(45, 80, 702)" opacity="0.11"></rect><rect width="382" height="3" x="379" y="716.5" rx="1.5" transform="rotate(45, 570, 718)" opacity="0.71"></rect><rect width="296" height="3" x="-87" y="333.5" rx="1.5" transform="rotate(45, 61, 335)" opacity="0.15"></rect><rect width="244" height="3" x="639" y="229.5" rx="1.5" transform="rotate(45, 761, 231)" opacity="0.08"></rect><rect width="206" height="3" x="153" y="394.5" rx="1.5" transform="rotate(45, 256, 396)" opacity="0.22"></rect><rect width="389" height="3" x="148.5" y="531.5" rx="1.5" transform="rotate(45, 343, 533)" opacity="0.50"></rect><rect width="459" height="3" x="-74.5" y="373.5" rx="1.5" transform="rotate(45, 155, 375)" opacity="0.65"></rect><rect width="165" height="3" x="571.5" y="109.5" rx="1.5" transform="rotate(45, 654, 111)" opacity="0.60"></rect><rect width="364" height="3" x="438" y="600.5" rx="1.5" transform="rotate(45, 620, 602)" opacity="0.86"></rect><rect width="444" height="3" x="509" y="108.5" rx="1.5" transform="rotate(45, 731, 110)" opacity="0.75"></rect><rect width="297" height="3" x="317.5" y="227.5" rx="1.5" transform="rotate(45, 466, 229)" opacity="0.56"></rect><rect width="527" height="3" x="-149.5" y="248.5" rx="1.5" transform="rotate(45, 114, 250)" opacity="0.59"></rect><rect width="224" height="3" x="334" y="420.5" rx="1.5" transform="rotate(45, 446, 422)" opacity="0.58"></rect><rect width="497" height="3" x="116.5" y="181.5" rx="1.5" transform="rotate(45, 365, 183)" opacity="0.20"></rect><rect width="250" height="3" x="-37" y="439.5" rx="1.5" transform="rotate(45, 88, 441)" opacity="0.43"></rect><rect width="143" height="3" x="116.5" y="138.5" rx="1.5" transform="rotate(45, 188, 140)" opacity="0.16"></rect><rect width="371" height="3" x="-154.5" y="757.5" rx="1.5" transform="rotate(45, 31, 759)" opacity="0.97"></rect><rect width="70" height="3" x="343" y="374.5" rx="1.5" transform="rotate(45, 378, 376)" opacity="0.88"></rect><rect width="421" height="3" x="479.5" y="751.5" rx="1.5" transform="rotate(45, 690, 753)" opacity="0.85"></rect><rect width="49" height="3" x="197.5" y="443.5" rx="1.5" transform="rotate(45, 222, 445)" opacity="0.99"></rect><rect width="61" height="3" x="727.5" y="41.5" rx="1.5" transform="rotate(45, 758, 43)" opacity="0.56"></rect><rect width="371" height="3" x="392.5" y="118.5" rx="1.5" transform="rotate(45, 578, 120)" opacity="0.51"></rect><rect width="288" height="3" x="339" y="38.5" rx="1.5" transform="rotate(45, 483, 40)" opacity="0.58"></rect><rect width="389" height="3" x="133.5" y="28.5" rx="1.5" transform="rotate(45, 328, 30)" opacity="0.31"></rect><rect width="560" height="3" x="83" y="272.5" rx="1.5" transform="rotate(45, 363, 274)" opacity="1.00"></rect><rect width="286" height="3" x="-27" y="766.5" rx="1.5" transform="rotate(45, 116, 768)" opacity="0.08"></rect><rect width="96" height="3" x="-36" y="678.5" rx="1.5" transform="rotate(45, 12, 680)" opacity="0.10"></rect><rect width="390" height="3" x="472" y="30.5" rx="1.5" transform="rotate(45, 667, 32)" opacity="0.91"></rect><rect width="100" height="3" x="588" y="220.5" rx="1.5" transform="rotate(45, 638, 222)" opacity="0.70"></rect><rect width="284" height="3" x="-23" y="54.5" rx="1.5" transform="rotate(45, 119, 56)" opacity="0.41"></rect><rect width="503" height="3" x="-125.5" y="510.5" rx="1.5" transform="rotate(45, 126, 512)" opacity="0.99"></rect><rect width="222" height="3" x="272" y="473.5" rx="1.5" transform="rotate(45, 383, 475)" opacity="0.64"></rect><rect width="596" height="3" x="184" y="530.5" rx="1.5" transform="rotate(45, 482, 532)" opacity="0.33"></rect><rect width="518" height="3" x="-225" y="222.5" rx="1.5" transform="rotate(45, 34, 224)" opacity="0.10"></rect><rect width="83" height="3" x="733.5" y="154.5" rx="1.5" transform="rotate(45, 775, 156)" opacity="0.35"></rect><rect width="390" height="3" x="252" y="317.5" rx="1.5" transform="rotate(45, 447, 319)" opacity="0.42"></rect><rect width="420" height="3" x="76" y="623.5" rx="1.5" transform="rotate(45, 286, 625)" opacity="0.37"></rect><rect width="112" height="3" x="267" y="104.5" rx="1.5" transform="rotate(45, 323, 106)" opacity="0.43"></rect><rect width="144" height="3" x="650" y="500.5" rx="1.5" transform="rotate(45, 722, 502)" opacity="0.58"></rect><rect width="73" height="3" x="9.5" y="671.5" rx="1.5" transform="rotate(45, 46, 673)" opacity="0.93"></rect><rect width="875" height="3" x="-109.5" y="738.5" rx="1.5" transform="rotate(45, 328, 740)" opacity="0.95"></rect><rect width="455" height="3" x="433.5" y="288.5" rx="1.5" transform="rotate(45, 661, 290)" opacity="0.58"></rect><rect width="446" height="3" x="352" y="37.5" rx="1.5" transform="rotate(45, 575, 39)" opacity="0.71"></rect><rect width="285" height="3" x="172.5" y="407.5" rx="1.5" transform="rotate(45, 315, 409)" opacity="0.66"></rect><rect width="351" height="3" x="327.5" y="636.5" rx="1.5" transform="rotate(45, 503, 638)" opacity="0.96"></rect><rect width="451" height="3" x="493.5" y="360.5" rx="1.5" transform="rotate(45, 719, 362)" opacity="0.47"></rect><rect width="80" height="3" x="3" y="128.5" rx="1.5" transform="rotate(45, 43, 130)" opacity="0.69"></rect><rect width="551" height="3" x="182.5" y="749.5" rx="1.5" transform="rotate(45, 458, 751)" opacity="0.30"></rect><rect width="359" height="3" x="32.5" y="236.5" rx="1.5" transform="rotate(45, 212, 238)" opacity="0.85"></rect><rect width="339" height="3" x="-111.5" y="30.5" rx="1.5" transform="rotate(45, 58, 32)" opacity="0.74"></rect><rect width="685" height="3" x="57.5" y="630.5" rx="1.5" transform="rotate(45, 400, 632)" opacity="0.54"></rect><rect width="369" height="3" x="-159.5" y="439.5" rx="1.5" transform="rotate(45, 25, 441)" opacity="0.57"></rect><rect width="270" height="3" x="48" y="40.5" rx="1.5" transform="rotate(45, 183, 42)" opacity="0.87"></rect></g></svg>